<svg width="52" height="52" viewBox="0 0 52 52" fill="none" xmlns="http://www.w3.org/2000/svg">
<rect width="52" height="52" rx="16" fill="#F4F4F5"/>
<path d="M22.6755 20.7383C22.0221 20.7383 21.5088 21.2633 21.5088 21.9049C21.5088 22.5466 22.0338 23.0716 22.6755 23.0716C23.3171 23.0716 23.8421 22.5466 23.8421 21.9049C23.8421 21.2633 23.3171 20.7383 22.6755 20.7383Z" fill="#111827"/>
<path d="M37.0363 17.8802C36.0563 15.6052 33.898 14.3335 30.888 14.3335H21.1113C17.3663 14.3335 14.333 17.3668 14.333 21.1118V30.8885C14.333 33.8985 15.6047 36.0568 17.8797 37.0368C18.1013 37.1302 18.358 37.0718 18.5213 36.9085L36.908 18.5218C37.083 18.3468 37.1413 18.0902 37.0363 17.8802ZM24.2847 26.2802C23.8297 26.7235 23.2347 26.9335 22.6397 26.9335C22.0447 26.9335 21.4497 26.7118 20.9947 26.2802C19.8047 25.1602 18.498 23.3752 18.9997 21.2518C19.443 19.3268 21.1463 18.4635 22.6397 18.4635C24.133 18.4635 25.8363 19.3268 26.2797 21.2635C26.7697 23.3752 25.463 25.1602 24.2847 26.2802Z" fill="#111827"/>
<path d="M34.7147 35.9516C34.9714 36.2083 34.9364 36.6283 34.6214 36.8033C33.5947 37.3749 32.3464 37.6666 30.8881 37.6666H21.1114C20.773 37.6666 20.633 37.2699 20.8664 37.0366L27.9131 29.9899C28.1464 29.7566 28.5081 29.7566 28.7414 29.9899L34.7147 35.9516Z" fill="#111827"/>
<path d="M37.667 21.1119V30.8885C37.667 32.3469 37.3754 33.6069 36.8037 34.6219C36.6287 34.9369 36.2087 34.9602 35.952 34.7152L29.9787 28.7419C29.7454 28.5085 29.7454 28.1469 29.9787 27.9135L37.0254 20.8669C37.2704 20.6335 37.667 20.7735 37.667 21.1119Z" fill="#111827"/>
</svg>
