<svg width="590" height="451" viewBox="0 0 590 451" fill="none" xmlns="http://www.w3.org/2000/svg">
<path d="M275.142 86.6434L268.005 90.8906L267.213 92.5895H264.834L264.041 90.0412L261.662 90.8906L260.076 97.6862L252.147 99.3851V110.428L248.975 111.277L248.523 114.675L241.839 113.826L245.011 109.578V106.181L242.632 108.729L241.046 104.482L227.567 101.933L226.774 98.5356L216.466 96.8368L202.986 85.794L184.749 90.8906L185.542 94.2884H181.578L178.406 98.5356H167.305L164.133 106.181L166.512 117.223L158.583 120.621L154.619 110.428H152.24L147.482 130.815L153.033 152.9L151.447 157.997L153.033 161.395L156.204 157.997L162.548 159.696L173.648 153.75L176.82 155.448L179.199 152.9L187.128 156.298L190.3 160.545L194.264 155.448H199.815L202.986 157.997L204.572 155.448L206.158 160.545L209.33 153.75L214.087 156.298L217.259 152.9L222.809 159.696L229.945 153.75H235.496L239.46 149.502L251.354 157.147L258.49 164.792L260.076 174.136L247.572 190.7L229.549 200.044L212.105 190.7L204.176 198.345L189.11 194.948L160.304 203.442H137.571L121.784 211.087H86.0313L80.14 220.949L65.0191 223.752V223.54L56.3208 212.727L52.3324 214.91L47.5749 211.512H42.8809L41.2316 214.91L35.7763 212.727L27.752 214.91L25.3733 207.265L26.1662 200.469L22.2016 199.62L19.03 195.372L0.792915 191.125L1.58583 187.727L0 182.631L8.72207 181.781L11.1008 175.835L9.51499 166.491L4.75749 161.395V158.846L11.8937 159.696L12.6866 155.448L22.2016 152.051L27.752 146.105L31.7166 148.653L34.8883 146.954L45.1962 152.9L59.4687 156.298L72.1553 157.147L76.9128 160.545L80.14 158.124L89.5994 159.696L91.1853 152.9L97.5286 146.954L98.3215 143.556L94.3569 138.46L96.7357 136.761L99.1144 132.513L98.3215 125.718L102.286 127.417L107.837 123.17L110.215 128.266V123.17L111.801 124.019L113.387 121.471L114.973 124.019L117.351 124.868L121.316 118.922L114.18 102.783L123.695 104.482V100.404L127.659 97.6862V93.0992L121.316 93.439L98.3215 101.933L89.5994 98.5356V95.1379L109.422 88.3423L111.008 91.7401L114.18 90.8906L115.211 88.3423L128.452 85.794L149.068 90.8906V84.5453L144.311 82.3962V78.9984L148.275 79.8479L151.447 74.7512L149.068 71.3534L145.896 62.0095L146.689 57.7623L141.139 51.8162L145.104 49.2678H151.447L152.24 33.9778L156.204 27.1822L165.719 28.8811L169.684 36.5261L176.027 43.3217H179.992L184.749 36.5261L187.921 37.3756L191.886 33.9778L195.85 35.6767L207.744 28.8811L213.294 22.0856L218.052 22.935L229.153 16.1395L232.324 1.69889L236.289 0L256.905 23.7845L252.94 28.0317L258.49 29.7306L262.455 33.9778L256.905 36.5261L257.698 39.9239H254.526L249.768 43.3217L245.804 50.1173L240.253 51.8162L237.875 56.9128L226.774 61.1601L227.567 67.1062L230.738 70.504L244.218 74.7512L245.011 85.794L248.183 90.8906L275.142 86.6434Z" fill="#43D023"/>
<path d="M43.1372 412.306L42.396 412.107L33.7896 409.802L37.5669 391.186L37.5874 391.088V373.272L39.8872 364.236L54.0454 344.857L54.144 344.724L54.1929 344.565L58.0122 332.289L71.0366 327.365L71.6206 327.144L71.6782 326.522L71.7485 325.76L79.6841 331.244L80.1519 331.567L80.6685 331.332L94.814 324.876L95.2407 324.682L95.3638 324.228L101.809 300.565L108.024 293.027H121.006L121.141 292.988L137.823 288.211H164.091L164.356 288.016L173.694 281.135H188.29L198.026 291.029L198.57 291.583L199.242 291.192L216.025 281.424L222.397 289.084L227.498 311.362L227.499 311.367L228.159 314.195L223.483 318.489L221.672 317.843L220.336 317.365V322.716L215.688 322.005L215.45 322.09L213.071 322.939L212.193 323.253L212.445 324.15L214.823 332.645L214.931 333.03L215.275 333.235L221.995 337.234L223.469 348.29L220.488 353.083L220.246 353.472L220.381 353.909L220.848 355.411L217.956 356.032L217.304 356.171L217.182 356.826L216.542 360.257H214.163L214.01 361.073L213.396 364.361L199.112 362.066L197.711 357.561L197.643 357.344L197.487 357.177L195.901 355.477L195.397 354.937L194.733 355.261L186.162 359.433L172.37 361.075L166.304 357.827L165.237 357.255L164.877 358.411L163.379 363.223L153.302 371.528L153 371.777L152.948 372.167L152.155 378.113L152.101 378.517L152.344 378.844L155.21 382.682L153.777 387.293L153.604 387.848L154 388.271L156.807 391.279L156.136 394.158L155.85 395.385H160.02L155.776 401.88H153.504L153.208 402.197L149.279 406.404C149.26 406.414 149.217 406.437 149.137 406.466C148.978 406.523 148.752 406.581 148.462 406.636C147.886 406.745 147.162 406.821 146.434 406.873C145.711 406.925 145.009 406.95 144.486 406.963C144.296 406.968 144.129 406.97 143.996 406.972L136.445 400.501L128.584 389.555L128.427 389.335L128.18 389.224L118.666 384.977L116.751 384.123L117.292 386.148L118.542 390.837H116.38L113.508 386.991L112.994 386.302L112.235 386.708L110.649 387.557L109.878 387.97L110.184 388.789L111.553 392.456L110.531 393.551L108.822 390.499L108.502 389.929L107.853 389.992L99.1304 390.842L98.3276 390.92L98.2339 391.721L97.5142 397.888L83.0483 402.782L82.6938 402.901L82.5054 403.225L78.9585 409.303L72.605 407.034L71.5493 406.657L71.2944 407.749L69.1216 417.057L63.6792 416.329L62.9907 416.237L62.6636 416.849L59.6743 422.453L53.3833 424.7L43.1372 417.643V412.306Z" fill="#6D61FE" stroke="white" stroke-width="2"/>
<path d="M371.878 197.071L367.517 208.241L355.623 212.786L340.557 229.775H317.65L294.568 242.516H278.448L263.645 246.763V255.776L235.1 260.355L229.153 274.005H215.586L216.141 280.741L198.626 290.935L188.595 280.741H173.252L163.65 287.817H137.571L120.753 292.634H107.44L100.788 300.703L94.2858 324.573L80.1402 331.028L70.7996 324.573L71.3626 318.542L78.4988 310.897L80.1402 299.421L74.5343 287.112L68.1909 285.413L62.6405 276.919H53.9185L58.676 270.123L55.5043 262.478V253.134L53.9185 244.64L59.4689 241.242L56.2972 235.296L65.0193 229.35V223.752L80.1402 220.949L86.0315 211.087H121.784L137.571 203.442H160.304L189.111 194.947L204.176 198.345L212.105 190.7L229.549 200.044L247.572 190.7L260.077 174.136L268.006 174.985L272.763 170.738L277.521 172.437L282.278 170.738L283.864 162.244H291.793L295.758 156.298L299.722 160.545L301.308 156.298L307.652 155.448L315.581 150.351L320.338 154.599L317.959 160.545L319.545 167.34L336.989 169.039V174.731L333.818 180.931L336.989 185.552L345.711 186.028L348.883 180.082L356.019 176.684L359.984 186.878L365.534 187.727L371.878 197.071Z" fill="#6D61FE"/>
<mask id="path-4-inside-1_537_76647" fill="white">
<path d="M587.072 380.673L589.45 386.237L575.178 390.017L572.799 394.264H569.723L565.766 384.682L555.355 378.124L546.633 380.673L544.254 378.124L534.739 379.823L531.568 376.426L526.81 378.124L522.053 377.275V382.372L518.881 385.769L513.331 383.221L504.608 390.017H499.851L488.75 395.963L479.235 394.264L476.063 395.113L474.478 392.565L486.371 384.92L485.578 377.275L470.513 375.576L466.548 370.479L456.241 373.877L451.483 371.329L445.14 378.124H439.589L434.832 385.769L412.63 396.812L403.115 416.349H397.414L392.014 418.048H384.117L376.949 419.747L369.02 424.844L362.676 432.489L353.954 437.586L342.061 450.327H325.639L318.273 440.134L307.965 412.102L310.344 397.662L315.102 385.769L312.723 379.823L315.102 369.63V361.985L318.273 348.394L316.687 341.598L321.445 337.351L320.652 324.609L315.894 322.911L302.415 329.706L299.243 323.76H296.864L299.243 313.567L305.587 299.126V290.632L301.622 289.782V285.535L294.486 285.832L291.314 282.137L288.142 277.89L284.971 274.492L281.799 276.191L278.627 269.395L273.077 268.546L273.87 271.944L271.491 272.793L266.734 268.546L265.148 271.094L258.805 270.245L257.219 273.643L251.668 275.342L253.254 280.438L247.704 281.288L246.911 288.083L238.189 299.975L238.982 304.223L227.881 311.018L222.727 288.508L215.662 280.014L215.107 273.277H228.674L234.621 259.627L263.166 255.048V246.036L277.969 241.788H294.089L317.171 229.047H340.078L355.144 212.058L367.038 207.513L371.399 196.343L376.156 181.903L388.843 177.655V174.173L395.979 177.655L399.151 174.258H404.701L410.251 177.655L423.731 175.956L430.074 177.655L434.832 175.107L444.347 176.806L445.933 172.559L448.311 173.408H453.862L457.033 167.462L465.756 164.914L472.099 166.613V169.773L465.756 173.408L472.099 177.553L468.927 181.053L471.306 183.601L469.72 186.15L474.478 189.548L480.028 196.343L483.2 209.934L490.336 210.784L491.922 215.88V219.669L484.786 220.128L481.836 228.061L483.2 230.321L488.75 250.708L487.957 255.804L495.093 257.503L497.472 261.75H508.399L512.538 249.858H531.568L545.047 255.804L556.671 261.75L563.284 262.999L565.766 266.626H569.485L569.628 276.191L567.249 281.288H563.284V287.599L561.698 291.481L565.766 298.472V307.272L572.006 313.567V326.172L574.385 331.405L572.799 333.953L577.557 337.351L579.143 340.749L573.592 345.846L572.006 351.792L573.592 362.834L579.143 366.818L579.935 363.684L589.45 374.727L587.072 380.673Z"/>
</mask>
<path d="M587.072 380.673L589.45 386.237L575.178 390.017L572.799 394.264H569.723L565.766 384.682L555.355 378.124L546.633 380.673L544.254 378.124L534.739 379.823L531.568 376.426L526.81 378.124L522.053 377.275V382.372L518.881 385.769L513.331 383.221L504.608 390.017H499.851L488.75 395.963L479.235 394.264L476.063 395.113L474.478 392.565L486.371 384.92L485.578 377.275L470.513 375.576L466.548 370.479L456.241 373.877L451.483 371.329L445.14 378.124H439.589L434.832 385.769L412.63 396.812L403.115 416.349H397.414L392.014 418.048H384.117L376.949 419.747L369.02 424.844L362.676 432.489L353.954 437.586L342.061 450.327H325.639L318.273 440.134L307.965 412.102L310.344 397.662L315.102 385.769L312.723 379.823L315.102 369.63V361.985L318.273 348.394L316.687 341.598L321.445 337.351L320.652 324.609L315.894 322.911L302.415 329.706L299.243 323.76H296.864L299.243 313.567L305.587 299.126V290.632L301.622 289.782V285.535L294.486 285.832L291.314 282.137L288.142 277.89L284.971 274.492L281.799 276.191L278.627 269.395L273.077 268.546L273.87 271.944L271.491 272.793L266.734 268.546L265.148 271.094L258.805 270.245L257.219 273.643L251.668 275.342L253.254 280.438L247.704 281.288L246.911 288.083L238.189 299.975L238.982 304.223L227.881 311.018L222.727 288.508L215.662 280.014L215.107 273.277H228.674L234.621 259.627L263.166 255.048V246.036L277.969 241.788H294.089L317.171 229.047H340.078L355.144 212.058L367.038 207.513L371.399 196.343L376.156 181.903L388.843 177.655V174.173L395.979 177.655L399.151 174.258H404.701L410.251 177.655L423.731 175.956L430.074 177.655L434.832 175.107L444.347 176.806L445.933 172.559L448.311 173.408H453.862L457.033 167.462L465.756 164.914L472.099 166.613V169.773L465.756 173.408L472.099 177.553L468.927 181.053L471.306 183.601L469.72 186.15L474.478 189.548L480.028 196.343L483.2 209.934L490.336 210.784L491.922 215.88V219.669L484.786 220.128L481.836 228.061L483.2 230.321L488.75 250.708L487.957 255.804L495.093 257.503L497.472 261.75H508.399L512.538 249.858H531.568L545.047 255.804L556.671 261.75L563.284 262.999L565.766 266.626H569.485L569.628 276.191L567.249 281.288H563.284V287.599L561.698 291.481L565.766 298.472V307.272L572.006 313.567V326.172L574.385 331.405L572.799 333.953L577.557 337.351L579.143 340.749L573.592 345.846L572.006 351.792L573.592 362.834L579.143 366.818L579.935 363.684L589.45 374.727L587.072 380.673Z" fill="#B000EB" stroke="white" stroke-width="8" mask="url(#path-4-inside-1_537_76647)"/>
<path d="M100.434 225.565C105.671 225.565 109.917 229.811 109.917 235.049C109.917 240.286 105.671 244.532 100.434 244.532C95.196 244.532 90.9502 240.286 90.9502 235.049C90.9503 229.811 95.1961 225.565 100.434 225.565Z" fill="#FFA900" stroke="#111827" stroke-width="3"/>
<path d="M74.7563 236.549C76.9608 236.549 78.7476 238.337 78.7476 240.541C78.7473 242.745 76.9606 244.532 74.7563 244.532C72.5519 244.532 70.7644 242.746 70.7642 240.541C70.7642 238.337 72.5517 236.549 74.7563 236.549Z" fill="#F9FAFB" stroke="#111827" stroke-width="3"/>
<path d="M162.625 77.2867C167.862 77.2867 172.108 81.5326 172.108 86.7701C172.108 92.0078 167.862 96.2535 162.625 96.2535C157.387 96.2534 153.141 92.0077 153.141 86.7701C153.141 81.5327 157.387 77.2868 162.625 77.2867Z" fill="#FFA900" stroke="#111827" stroke-width="3"/>
<path d="M124.183 139.893C126.387 139.893 128.174 141.681 128.174 143.885C128.174 146.09 126.387 147.876 124.183 147.877C121.978 147.877 120.191 146.09 120.19 143.885C120.19 141.681 121.978 139.893 124.183 139.893Z" fill="#F9FAFB" stroke="#111827" stroke-width="3"/>
<path d="M23.1333 159.664C25.3377 159.664 27.1245 161.451 27.1245 163.656C27.1243 165.86 25.3376 167.647 23.1333 167.647C20.9288 167.647 19.1413 165.86 19.1411 163.656C19.1411 161.451 20.9287 159.664 23.1333 159.664Z" fill="#F9FAFB" stroke="#111827" stroke-width="3"/>
<path d="M112.101 332.106C114.305 332.106 116.092 333.894 116.092 336.098C116.092 338.303 114.305 340.089 112.101 340.089C109.896 340.089 108.109 338.303 108.108 336.098C108.108 333.894 109.896 332.106 112.101 332.106Z" fill="#F9FAFB" stroke="#111827" stroke-width="3"/>
<path d="M176.904 336.5C179.108 336.5 180.895 338.287 180.895 340.492C180.895 342.696 179.108 344.483 176.904 344.483C174.699 344.483 172.912 342.696 172.912 340.492C172.912 338.287 174.699 336.5 176.904 336.5Z" fill="#F9FAFB" stroke="#111827" stroke-width="3"/>
<path d="M207.942 250.664C210.147 250.664 211.934 252.451 211.934 254.656C211.933 256.86 210.147 258.647 207.942 258.647C205.738 258.647 203.95 256.86 203.95 254.656C203.95 252.451 205.738 250.664 207.942 250.664Z" fill="#F9FAFB" stroke="#111827" stroke-width="3"/>
<path d="M331.942 344.664C334.147 344.664 335.934 346.451 335.934 348.656C335.933 350.86 334.147 352.647 331.942 352.647C329.738 352.647 327.95 350.86 327.95 348.656C327.95 346.451 329.738 344.664 331.942 344.664Z" fill="#F9FAFB" stroke="#111827" stroke-width="3"/>
<path d="M248.297 95.9589C250.502 95.9591 252.289 97.7466 252.289 99.951C252.288 102.155 250.502 103.942 248.297 103.942C246.093 103.942 244.305 102.155 244.305 99.951C244.305 97.7464 246.093 95.9589 248.297 95.9589Z" fill="#F9FAFB" stroke="#111827" stroke-width="3"/>
<path d="M115.891 242.68V239.418C116.218 239.418 116.491 239.336 116.71 239.173C116.93 239.01 117.105 238.783 117.235 238.494C117.371 238.205 117.476 237.869 117.55 237.486C117.625 237.099 117.683 236.688 117.725 236.254C117.777 235.68 117.821 235.118 117.858 234.567C117.896 234.012 117.931 233.438 117.963 232.845C118.001 232.248 118.043 231.601 118.089 230.906L124.662 230.92V239.418H125.418V242.68H123.738V241H117.578V242.68H115.891ZM118.516 239.418H122.975V232.502L119.629 232.488C119.597 232.978 119.569 233.435 119.545 233.86C119.527 234.28 119.501 234.707 119.468 235.141C119.44 235.575 119.401 236.049 119.349 236.562C119.303 237.066 119.251 237.486 119.195 237.822C119.144 238.158 119.067 238.45 118.964 238.697C118.862 238.94 118.712 239.18 118.516 239.418ZM127.952 244.36L129.408 240.363L129.436 241.539L126.139 233.44H127.896L130.234 239.432H129.786L132.061 233.44H133.748L129.534 244.36H127.952ZM134.778 241V233.44H136.395V239.502H138.53V233.44H140.147V239.502H142.282V233.44H143.899V241H134.778ZM147.966 241.21C147.42 241.21 146.958 241.107 146.58 240.902C146.202 240.692 145.915 240.414 145.719 240.069C145.528 239.724 145.432 239.343 145.432 238.928C145.432 238.564 145.493 238.237 145.614 237.948C145.735 237.654 145.922 237.402 146.174 237.192C146.426 236.977 146.753 236.802 147.154 236.667C147.457 236.569 147.812 236.48 148.218 236.401C148.629 236.322 149.072 236.249 149.548 236.184C150.029 236.114 150.53 236.039 151.053 235.96L150.451 236.303C150.456 235.78 150.339 235.395 150.101 235.148C149.863 234.901 149.462 234.777 148.897 234.777C148.556 234.777 148.227 234.856 147.91 235.015C147.593 235.174 147.371 235.447 147.245 235.834L145.705 235.351C145.892 234.712 146.246 234.198 146.769 233.811C147.296 233.424 148.006 233.23 148.897 233.23C149.569 233.23 150.159 233.34 150.668 233.559C151.181 233.778 151.562 234.138 151.809 234.637C151.944 234.903 152.026 235.176 152.054 235.456C152.082 235.731 152.096 236.032 152.096 236.359V241H150.619V239.362L150.864 239.628C150.523 240.174 150.124 240.575 149.667 240.832C149.214 241.084 148.647 241.21 147.966 241.21ZM148.302 239.866C148.685 239.866 149.011 239.798 149.282 239.663C149.553 239.528 149.767 239.362 149.926 239.166C150.089 238.97 150.199 238.786 150.255 238.613C150.344 238.398 150.393 238.153 150.402 237.878C150.416 237.598 150.423 237.372 150.423 237.199L150.941 237.353C150.432 237.432 149.996 237.502 149.632 237.563C149.268 237.624 148.955 237.682 148.694 237.738C148.433 237.789 148.202 237.848 148.001 237.913C147.805 237.983 147.639 238.065 147.504 238.158C147.369 238.251 147.264 238.359 147.189 238.48C147.119 238.601 147.084 238.744 147.084 238.907C147.084 239.094 147.131 239.259 147.224 239.404C147.317 239.544 147.453 239.656 147.63 239.74C147.812 239.824 148.036 239.866 148.302 239.866ZM153.904 241V233.44H155.591V236.422H158.986V233.44H160.673V241H158.986V238.004H155.591V241H153.904ZM165.77 241.224C165.052 241.215 164.44 241.054 163.936 240.741C163.432 240.428 163.038 239.987 162.753 239.418C162.469 238.849 162.296 238.177 162.235 237.402C162.207 237.005 162.205 236.562 162.228 236.072C162.252 235.582 162.303 235.104 162.382 234.637C162.462 234.17 162.571 233.774 162.711 233.447C162.856 233.12 163.045 232.819 163.278 232.544C163.512 232.264 163.764 232.031 164.034 231.844C164.342 231.629 164.676 231.464 165.035 231.347C165.399 231.23 165.78 231.142 166.176 231.081C166.573 231.016 166.981 230.957 167.401 230.906C167.821 230.855 168.237 230.789 168.647 230.71L168.801 232.201C168.54 232.266 168.237 232.318 167.891 232.355C167.551 232.388 167.196 232.425 166.827 232.467C166.463 232.509 166.116 232.57 165.784 232.649C165.453 232.728 165.166 232.845 164.923 232.999C164.587 233.204 164.331 233.498 164.153 233.881C163.976 234.264 163.871 234.667 163.838 235.092C164.128 234.663 164.487 234.362 164.916 234.189C165.35 234.012 165.789 233.923 166.232 233.923C166.904 233.923 167.481 234.082 167.961 234.399C168.447 234.716 168.818 235.148 169.074 235.694C169.336 236.235 169.466 236.84 169.466 237.507C169.466 238.254 169.31 238.907 168.997 239.467C168.685 240.027 168.251 240.461 167.695 240.769C167.14 241.077 166.498 241.229 165.77 241.224ZM165.854 239.642C166.461 239.642 166.918 239.455 167.226 239.082C167.539 238.704 167.695 238.202 167.695 237.577C167.695 236.938 167.534 236.434 167.212 236.065C166.895 235.696 166.442 235.512 165.854 235.512C165.257 235.512 164.802 235.696 164.489 236.065C164.177 236.434 164.02 236.938 164.02 237.577C164.02 238.23 164.179 238.739 164.496 239.103C164.814 239.462 165.266 239.642 165.854 239.642ZM174.445 241.21C173.68 241.21 173.008 241.044 172.429 240.713C171.851 240.382 171.398 239.922 171.071 239.334C170.749 238.746 170.588 238.069 170.588 237.304C170.588 236.478 170.747 235.762 171.064 235.155C171.382 234.544 171.823 234.07 172.387 233.734C172.952 233.398 173.605 233.23 174.347 233.23C175.131 233.23 175.796 233.414 176.342 233.783C176.893 234.147 177.301 234.663 177.567 235.33C177.833 235.997 177.934 236.784 177.868 237.689H176.195V237.073C176.191 236.252 176.046 235.652 175.761 235.274C175.477 234.896 175.029 234.707 174.417 234.707C173.727 234.707 173.213 234.922 172.877 235.351C172.541 235.776 172.373 236.399 172.373 237.22C172.373 237.985 172.541 238.578 172.877 238.998C173.213 239.418 173.703 239.628 174.347 239.628C174.763 239.628 175.12 239.537 175.418 239.355C175.722 239.168 175.955 238.9 176.118 238.55L177.784 239.054C177.495 239.735 177.047 240.265 176.44 240.643C175.838 241.021 175.173 241.21 174.445 241.21ZM171.841 237.689V236.415H177.042V237.689H171.841Z" fill="#1F2937"/>
<path d="M207.15 234V226.8H209.995C210.065 226.8 210.149 226.803 210.245 226.81C210.342 226.813 210.435 226.823 210.525 226.84C210.915 226.9 211.242 227.033 211.505 227.24C211.772 227.447 211.972 227.708 212.105 228.025C212.239 228.338 212.305 228.687 212.305 229.07C212.305 229.45 212.237 229.798 212.1 230.115C211.967 230.428 211.767 230.69 211.5 230.9C211.237 231.107 210.912 231.24 210.525 231.3C210.435 231.313 210.342 231.323 210.245 231.33C210.149 231.337 210.065 231.34 209.995 231.34H208.04V234H207.15ZM208.04 230.495H209.965C210.029 230.495 210.1 230.492 210.18 230.485C210.264 230.478 210.342 230.467 210.415 230.45C210.645 230.397 210.832 230.3 210.975 230.16C211.122 230.017 211.229 229.85 211.295 229.66C211.362 229.467 211.395 229.27 211.395 229.07C211.395 228.87 211.362 228.675 211.295 228.485C211.229 228.292 211.122 228.123 210.975 227.98C210.832 227.837 210.645 227.74 210.415 227.69C210.342 227.67 210.264 227.658 210.18 227.655C210.1 227.648 210.029 227.645 209.965 227.645H208.04V230.495ZM213.303 234V226.8H216.148C216.218 226.8 216.301 226.803 216.398 226.81C216.494 226.813 216.588 226.823 216.678 226.84C217.068 226.9 217.394 227.033 217.658 227.24C217.924 227.447 218.124 227.708 218.258 228.025C218.391 228.338 218.458 228.687 218.458 229.07C218.458 229.45 218.389 229.798 218.253 230.115C218.119 230.428 217.919 230.69 217.653 230.9C217.389 231.107 217.064 231.24 216.678 231.3C216.588 231.313 216.494 231.323 216.398 231.33C216.301 231.337 216.218 231.34 216.148 231.34H214.193V234H213.303ZM214.193 230.495H216.118C216.181 230.495 216.253 230.492 216.333 230.485C216.416 230.478 216.494 230.467 216.568 230.45C216.798 230.397 216.984 230.3 217.128 230.16C217.274 230.017 217.381 229.85 217.448 229.66C217.514 229.467 217.548 229.27 217.548 229.07C217.548 228.87 217.514 228.675 217.448 228.485C217.381 228.292 217.274 228.123 217.128 227.98C216.984 227.837 216.798 227.74 216.568 227.69C216.494 227.67 216.416 227.658 216.333 227.655C216.253 227.648 216.181 227.645 216.118 227.645H214.193V230.495ZM219.455 234V226.8H225.075V234H224.185V227.645H220.345V234H219.455Z" fill="#D1D5DB"/>
<path d="M406.43 299.164V289.084H412.8V290.267H407.676V299.164H406.43ZM413.922 299.164V289.084H420.32V290.267H415.168V292.948H417.905C418.003 292.948 418.12 292.952 418.255 292.962C418.391 292.966 418.521 292.978 418.647 292.997C419.179 293.062 419.63 293.239 419.998 293.529C420.372 293.813 420.654 294.175 420.845 294.614C421.041 295.052 421.139 295.533 421.139 296.056C421.139 296.574 421.044 297.052 420.852 297.491C420.661 297.929 420.379 298.293 420.005 298.583C419.637 298.867 419.184 299.045 418.647 299.115C418.521 299.129 418.391 299.14 418.255 299.15C418.12 299.159 418.003 299.164 417.905 299.164H413.922ZM415.168 297.981H417.863C417.952 297.981 418.052 297.976 418.164 297.967C418.281 297.957 418.391 297.943 418.493 297.925C418.979 297.827 419.329 297.596 419.543 297.232C419.758 296.863 419.865 296.471 419.865 296.056C419.865 295.631 419.758 295.239 419.543 294.88C419.329 294.516 418.979 294.285 418.493 294.187C418.391 294.163 418.281 294.149 418.164 294.145C418.052 294.135 417.952 294.131 417.863 294.131H415.168V297.981ZM421.412 299.164L424.786 289.084H426.522L429.896 299.164H428.601L425.444 289.812H425.836L422.707 299.164H421.412ZM423.036 296.805V295.636H428.272V296.805H423.036ZM435.02 299.374C434.016 299.374 433.165 299.152 432.465 298.709C431.765 298.265 431.23 297.649 430.862 296.861C430.498 296.072 430.316 295.16 430.316 294.124C430.316 293.088 430.498 292.175 430.862 291.387C431.23 290.598 431.765 289.982 432.465 289.539C433.165 289.095 434.016 288.874 435.02 288.874C436.028 288.874 436.882 289.095 437.582 289.539C438.282 289.982 438.814 290.598 439.178 291.387C439.542 292.175 439.724 293.088 439.724 294.124C439.724 295.16 439.542 296.072 439.178 296.861C438.814 297.649 438.282 298.265 437.582 298.709C436.882 299.152 436.028 299.374 435.02 299.374ZM435.02 298.184C435.771 298.188 436.396 298.02 436.896 297.68C437.4 297.334 437.775 296.856 438.023 296.245C438.275 295.633 438.401 294.926 438.401 294.124C438.401 293.316 438.275 292.609 438.023 292.003C437.775 291.396 437.4 290.922 436.896 290.582C436.396 290.241 435.771 290.068 435.02 290.064C434.268 290.059 433.643 290.227 433.144 290.568C432.649 290.908 432.276 291.384 432.024 291.996C431.772 292.607 431.643 293.316 431.639 294.124C431.634 294.926 431.758 295.631 432.01 296.238C432.262 296.844 432.637 297.32 433.137 297.666C433.641 298.006 434.268 298.179 435.02 298.184Z" fill="#D1D5DB"/>
<path d="M65.1102 182.15C64.3935 182.15 63.7852 181.992 63.2852 181.675C62.7852 181.358 62.4035 180.918 62.1402 180.355C61.8802 179.792 61.7502 179.14 61.7502 178.4C61.7502 177.66 61.8802 177.008 62.1402 176.445C62.4035 175.882 62.7852 175.442 63.2852 175.125C63.7852 174.808 64.3935 174.65 65.1102 174.65C65.9435 174.65 66.6285 174.862 67.1652 175.285C67.7052 175.708 68.0769 176.278 68.2802 176.995L67.3752 177.235C67.2285 176.698 66.9669 176.275 66.5902 175.965C66.2135 175.655 65.7202 175.5 65.1102 175.5C64.5735 175.5 64.1269 175.622 63.7702 175.865C63.4135 176.108 63.1452 176.448 62.9652 176.885C62.7852 177.318 62.6935 177.823 62.6902 178.4C62.6869 178.973 62.7752 179.478 62.9552 179.915C63.1352 180.348 63.4052 180.688 63.7652 180.935C64.1252 181.178 64.5735 181.3 65.1102 181.3C65.7202 181.3 66.2135 181.145 66.5902 180.835C66.9669 180.522 67.2285 180.098 67.3752 179.565L68.2802 179.805C68.0769 180.518 67.7052 181.088 67.1652 181.515C66.6285 181.938 65.9435 182.15 65.1102 182.15ZM71.6768 182.15C71.1401 182.15 70.6768 182.028 70.2868 181.785C69.9001 181.542 69.6018 181.205 69.3918 180.775C69.1818 180.345 69.0768 179.852 69.0768 179.295C69.0768 178.728 69.1834 178.232 69.3968 177.805C69.6101 177.378 69.9118 177.047 70.3018 176.81C70.6918 176.57 71.1501 176.45 71.6768 176.45C72.2168 176.45 72.6818 176.572 73.0718 176.815C73.4618 177.055 73.7601 177.39 73.9668 177.82C74.1768 178.247 74.2818 178.738 74.2818 179.295C74.2818 179.858 74.1768 180.355 73.9668 180.785C73.7568 181.212 73.4568 181.547 73.0668 181.79C72.6768 182.03 72.2134 182.15 71.6768 182.15ZM71.6768 181.305C72.2368 181.305 72.6534 181.118 72.9268 180.745C73.2001 180.372 73.3368 179.888 73.3368 179.295C73.3368 178.685 73.1984 178.2 72.9218 177.84C72.6451 177.477 72.2301 177.295 71.6768 177.295C71.3001 177.295 70.9901 177.38 70.7468 177.55C70.5034 177.72 70.3218 177.955 70.2018 178.255C70.0818 178.555 70.0218 178.902 70.0218 179.295C70.0218 179.902 70.1618 180.388 70.4418 180.755C70.7218 181.122 71.1334 181.305 71.6768 181.305ZM75.3826 182V176.6H79.1326V177.445H76.2726V182H75.3826ZM79.5822 183.2V181.265C79.8856 181.265 80.1022 181.167 80.2322 180.97C80.3622 180.77 80.4672 180.442 80.5472 179.985C80.6006 179.698 80.6439 179.392 80.6772 179.065C80.7106 178.738 80.7389 178.375 80.7622 177.975C80.7889 177.572 80.8139 177.113 80.8372 176.6H84.5572V181.265H85.0822V183.2H84.2322V182H80.4322V183.2H79.5822ZM80.9522 181.265H83.6672V177.335H81.6422C81.6322 177.572 81.6189 177.82 81.6022 178.08C81.5856 178.337 81.5656 178.593 81.5422 178.85C81.5222 179.107 81.4972 179.35 81.4672 179.58C81.4406 179.807 81.4089 180.01 81.3722 180.19C81.3289 180.44 81.2789 180.652 81.2222 180.825C81.1656 180.998 81.0756 181.145 80.9522 181.265ZM90.5057 176.6V182H89.6457V178.02L86.8157 182H86.0807V176.6H86.9407V180.525L89.7757 176.6H90.5057ZM94.2311 175.97C93.9811 175.97 93.7527 175.908 93.5461 175.785C93.3394 175.662 93.1744 175.498 93.0511 175.295C92.9277 175.088 92.8661 174.858 92.8661 174.605H93.5861C93.5861 174.782 93.6494 174.933 93.7761 175.06C93.9027 175.187 94.0544 175.25 94.2311 175.25C94.4111 175.25 94.5627 175.187 94.6861 175.06C94.8127 174.933 94.8761 174.782 94.8761 174.605H95.5961C95.5961 174.858 95.5344 175.088 95.4111 175.295C95.2911 175.498 95.1261 175.662 94.9161 175.785C94.7094 175.908 94.4811 175.97 94.2311 175.97ZM96.3261 176.6V182H95.4661V178.02L92.6361 182H91.9011V176.6H92.7611V180.525L95.5961 176.6H96.3261ZM100.001 182.15C99.4547 182.15 98.9897 182.028 98.6064 181.785C98.2264 181.538 97.9364 181.2 97.7364 180.77C97.5364 180.34 97.433 179.85 97.4264 179.3C97.433 178.737 97.538 178.242 97.7414 177.815C97.948 177.385 98.243 177.05 98.6264 176.81C99.0097 176.57 99.4714 176.45 100.011 176.45C100.581 176.45 101.071 176.59 101.481 176.87C101.895 177.15 102.171 177.533 102.311 178.02L101.431 178.285C101.318 177.972 101.133 177.728 100.876 177.555C100.623 177.382 100.331 177.295 100.001 177.295C99.6314 177.295 99.3264 177.382 99.0864 177.555C98.8464 177.725 98.668 177.962 98.5514 178.265C98.4347 178.565 98.3747 178.91 98.3714 179.3C98.378 179.9 98.5164 180.385 98.7864 180.755C99.0597 181.122 99.4647 181.305 100.001 181.305C100.355 181.305 100.648 181.225 100.881 181.065C101.115 180.902 101.291 180.667 101.411 180.36L102.311 180.595C102.125 181.098 101.833 181.483 101.436 181.75C101.04 182.017 100.561 182.15 100.001 182.15ZM103.327 182L103.332 176.6H104.232V179.2L106.497 176.6H107.652L105.267 179.3L107.932 182H106.687L104.232 179.4V182H103.327ZM109.964 182.15C109.561 182.15 109.223 182.077 108.949 181.93C108.679 181.78 108.474 181.583 108.334 181.34C108.198 181.097 108.129 180.83 108.129 180.54C108.129 180.257 108.183 180.012 108.289 179.805C108.399 179.595 108.553 179.422 108.749 179.285C108.946 179.145 109.181 179.035 109.454 178.955C109.711 178.885 109.998 178.825 110.314 178.775C110.634 178.722 110.958 178.673 111.284 178.63C111.611 178.587 111.916 178.545 112.199 178.505L111.879 178.69C111.889 178.21 111.793 177.855 111.589 177.625C111.389 177.395 111.043 177.28 110.549 177.28C110.223 177.28 109.936 177.355 109.689 177.505C109.446 177.652 109.274 177.892 109.174 178.225L108.329 177.97C108.459 177.497 108.711 177.125 109.084 176.855C109.458 176.585 109.949 176.45 110.559 176.45C111.049 176.45 111.469 176.538 111.819 176.715C112.173 176.888 112.426 177.152 112.579 177.505C112.656 177.672 112.704 177.853 112.724 178.05C112.744 178.243 112.754 178.447 112.754 178.66V182H111.964V180.705L112.149 180.825C111.946 181.262 111.661 181.592 111.294 181.815C110.931 182.038 110.488 182.15 109.964 182.15ZM110.099 181.405C110.419 181.405 110.696 181.348 110.929 181.235C111.166 181.118 111.356 180.967 111.499 180.78C111.643 180.59 111.736 180.383 111.779 180.16C111.829 179.993 111.856 179.808 111.859 179.605C111.866 179.398 111.869 179.24 111.869 179.13L112.179 179.265C111.889 179.305 111.604 179.343 111.324 179.38C111.044 179.417 110.779 179.457 110.529 179.5C110.279 179.54 110.054 179.588 109.854 179.645C109.708 179.692 109.569 179.752 109.439 179.825C109.313 179.898 109.209 179.993 109.129 180.11C109.053 180.223 109.014 180.365 109.014 180.535C109.014 180.682 109.051 180.822 109.124 180.955C109.201 181.088 109.318 181.197 109.474 181.28C109.634 181.363 109.843 181.405 110.099 181.405ZM117.389 182V180.045H116.224C116.088 180.045 115.936 180.04 115.769 180.03C115.606 180.017 115.453 179.998 115.309 179.975C114.919 179.902 114.589 179.73 114.319 179.46C114.053 179.19 113.919 178.817 113.919 178.34C113.919 177.877 114.044 177.505 114.294 177.225C114.548 176.942 114.859 176.758 115.229 176.675C115.396 176.635 115.564 176.613 115.734 176.61C115.908 176.603 116.054 176.6 116.174 176.6H118.279L118.284 182H117.389ZM113.754 182L115.189 179.8H116.149L114.714 182H113.754ZM116.159 179.31H117.389V177.335H116.159C116.083 177.335 115.981 177.338 115.854 177.345C115.731 177.352 115.613 177.372 115.499 177.405C115.393 177.435 115.288 177.49 115.184 177.57C115.084 177.65 115.001 177.753 114.934 177.88C114.868 178.007 114.834 178.157 114.834 178.33C114.834 178.58 114.904 178.783 115.044 178.94C115.184 179.093 115.354 179.197 115.554 179.25C115.664 179.277 115.773 179.293 115.879 179.3C115.989 179.307 116.083 179.31 116.159 179.31ZM123.991 182.15C123.455 182.15 122.991 182.028 122.601 181.785C122.215 181.542 121.916 181.205 121.706 180.775C121.496 180.345 121.391 179.852 121.391 179.295C121.391 178.728 121.498 178.232 121.711 177.805C121.925 177.378 122.226 177.047 122.616 176.81C123.006 176.57 123.465 176.45 123.991 176.45C124.531 176.45 124.996 176.572 125.386 176.815C125.776 177.055 126.075 177.39 126.281 177.82C126.491 178.247 126.596 178.738 126.596 179.295C126.596 179.858 126.491 180.355 126.281 180.785C126.071 181.212 125.771 181.547 125.381 181.79C124.991 182.03 124.528 182.15 123.991 182.15ZM123.991 181.305C124.551 181.305 124.968 181.118 125.241 180.745C125.515 180.372 125.651 179.888 125.651 179.295C125.651 178.685 125.513 178.2 125.236 177.84C124.96 177.477 124.545 177.295 123.991 177.295C123.615 177.295 123.305 177.38 123.061 177.55C122.818 177.72 122.636 177.955 122.516 178.255C122.396 178.555 122.336 178.902 122.336 179.295C122.336 179.902 122.476 180.388 122.756 180.755C123.036 181.122 123.448 181.305 123.991 181.305ZM129.892 182.155C129.382 182.152 128.947 182.042 128.587 181.825C128.227 181.605 127.947 181.283 127.747 180.86C127.547 180.437 127.435 179.918 127.412 179.305C127.399 179.022 127.402 178.71 127.422 178.37C127.445 178.03 127.482 177.703 127.532 177.39C127.585 177.077 127.652 176.818 127.732 176.615C127.822 176.372 127.949 176.147 128.112 175.94C128.279 175.73 128.465 175.557 128.672 175.42C128.882 175.277 129.117 175.165 129.377 175.085C129.637 175.005 129.909 174.943 130.192 174.9C130.479 174.853 130.765 174.813 131.052 174.78C131.339 174.743 131.612 174.7 131.872 174.65L131.962 175.45C131.779 175.49 131.562 175.525 131.312 175.555C131.062 175.582 130.802 175.613 130.532 175.65C130.265 175.687 130.009 175.738 129.762 175.805C129.519 175.868 129.309 175.957 129.132 176.07C128.872 176.227 128.672 176.462 128.532 176.775C128.395 177.085 128.312 177.433 128.282 177.82C128.489 177.5 128.757 177.265 129.087 177.115C129.417 176.965 129.769 176.89 130.142 176.89C130.625 176.89 131.042 177.003 131.392 177.23C131.742 177.453 132.01 177.762 132.197 178.155C132.387 178.548 132.482 178.997 132.482 179.5C132.482 180.033 132.375 180.5 132.162 180.9C131.949 181.3 131.647 181.61 131.257 181.83C130.87 182.05 130.415 182.158 129.892 182.155ZM129.947 181.31C130.47 181.31 130.867 181.148 131.137 180.825C131.407 180.498 131.542 180.065 131.542 179.525C131.542 178.972 131.402 178.537 131.122 178.22C130.842 177.9 130.449 177.74 129.942 177.74C129.429 177.74 129.035 177.9 128.762 178.22C128.492 178.537 128.357 178.972 128.357 179.525C128.357 180.082 128.494 180.518 128.767 180.835C129.04 181.152 129.434 181.31 129.947 181.31ZM133.086 182V181.235C133.286 181.272 133.437 181.265 133.541 181.215C133.647 181.162 133.726 181.07 133.776 180.94C133.829 180.807 133.872 180.64 133.906 180.44C133.962 180.123 134.011 179.77 134.051 179.38C134.094 178.99 134.132 178.563 134.166 178.1C134.202 177.633 134.236 177.133 134.266 176.6H138.041V182H137.151V177.445H135.076C135.056 177.752 135.031 178.067 135.001 178.39C134.974 178.713 134.946 179.028 134.916 179.335C134.886 179.638 134.852 179.922 134.816 180.185C134.782 180.445 134.746 180.67 134.706 180.86C134.642 181.187 134.554 181.448 134.441 181.645C134.327 181.838 134.164 181.963 133.951 182.02C133.737 182.08 133.449 182.073 133.086 182ZM140.98 182.15C140.577 182.15 140.238 182.077 139.965 181.93C139.695 181.78 139.49 181.583 139.35 181.34C139.213 181.097 139.145 180.83 139.145 180.54C139.145 180.257 139.198 180.012 139.305 179.805C139.415 179.595 139.568 179.422 139.765 179.285C139.962 179.145 140.197 179.035 140.47 178.955C140.727 178.885 141.013 178.825 141.33 178.775C141.65 178.722 141.973 178.673 142.3 178.63C142.627 178.587 142.932 178.545 143.215 178.505L142.895 178.69C142.905 178.21 142.808 177.855 142.605 177.625C142.405 177.395 142.058 177.28 141.565 177.28C141.238 177.28 140.952 177.355 140.705 177.505C140.462 177.652 140.29 177.892 140.19 178.225L139.345 177.97C139.475 177.497 139.727 177.125 140.1 176.855C140.473 176.585 140.965 176.45 141.575 176.45C142.065 176.45 142.485 176.538 142.835 176.715C143.188 176.888 143.442 177.152 143.595 177.505C143.672 177.672 143.72 177.853 143.74 178.05C143.76 178.243 143.77 178.447 143.77 178.66V182H142.98V180.705L143.165 180.825C142.962 181.262 142.677 181.592 142.31 181.815C141.947 182.038 141.503 182.15 140.98 182.15ZM141.115 181.405C141.435 181.405 141.712 181.348 141.945 181.235C142.182 181.118 142.372 180.967 142.515 180.78C142.658 180.59 142.752 180.383 142.795 180.16C142.845 179.993 142.872 179.808 142.875 179.605C142.882 179.398 142.885 179.24 142.885 179.13L143.195 179.265C142.905 179.305 142.62 179.343 142.34 179.38C142.06 179.417 141.795 179.457 141.545 179.5C141.295 179.54 141.07 179.588 140.87 179.645C140.723 179.692 140.585 179.752 140.455 179.825C140.328 179.898 140.225 179.993 140.145 180.11C140.068 180.223 140.03 180.365 140.03 180.535C140.03 180.682 140.067 180.822 140.14 180.955C140.217 181.088 140.333 181.197 140.49 181.28C140.65 181.363 140.858 181.405 141.115 181.405ZM147.345 182.15C146.798 182.15 146.333 182.028 145.95 181.785C145.57 181.538 145.28 181.2 145.08 180.77C144.88 180.34 144.777 179.85 144.77 179.3C144.777 178.737 144.882 178.242 145.085 177.815C145.292 177.385 145.587 177.05 145.97 176.81C146.353 176.57 146.815 176.45 147.355 176.45C147.925 176.45 148.415 176.59 148.825 176.87C149.238 177.15 149.515 177.533 149.655 178.02L148.775 178.285C148.662 177.972 148.477 177.728 148.22 177.555C147.967 177.382 147.675 177.295 147.345 177.295C146.975 177.295 146.67 177.382 146.43 177.555C146.19 177.725 146.012 177.962 145.895 178.265C145.778 178.565 145.718 178.91 145.715 179.3C145.722 179.9 145.86 180.385 146.13 180.755C146.403 181.122 146.808 181.305 147.345 181.305C147.698 181.305 147.992 181.225 148.225 181.065C148.458 180.902 148.635 180.667 148.755 180.36L149.655 180.595C149.468 181.098 149.177 181.483 148.78 181.75C148.383 182.017 147.905 182.15 147.345 182.15ZM152.008 182V177.41H150.128V176.6H154.778V177.41H152.898V182H152.008ZM155.724 182L155.719 176.6H156.614V178.555H157.779C157.936 178.555 158.096 178.558 158.259 178.565C158.423 178.572 158.564 178.587 158.684 178.61C158.964 178.663 159.209 178.757 159.419 178.89C159.629 179.023 159.793 179.205 159.909 179.435C160.026 179.662 160.084 179.943 160.084 180.28C160.084 180.747 159.963 181.117 159.719 181.39C159.479 181.66 159.164 181.84 158.774 181.93C158.641 181.96 158.488 181.98 158.314 181.99C158.144 181.997 157.983 182 157.829 182H155.724ZM156.614 181.265H157.844C157.944 181.265 158.056 181.262 158.179 181.255C158.303 181.248 158.413 181.232 158.509 181.205C158.679 181.155 158.831 181.057 158.964 180.91C159.101 180.763 159.169 180.553 159.169 180.28C159.169 180.003 159.103 179.79 158.969 179.64C158.839 179.49 158.668 179.392 158.454 179.345C158.358 179.322 158.256 179.307 158.149 179.3C158.043 179.293 157.941 179.29 157.844 179.29H156.614V181.265Z" fill="#E5E7EB"/>
<path d="M86.6801 355L89.1551 351.355L86.7451 347.8H87.8301L89.6951 350.605L91.5551 347.8H92.6451L90.2351 351.355L92.7051 355H91.6201L89.6951 352.11L87.7701 355H86.6801ZM95.0358 355.15C94.6324 355.15 94.2941 355.077 94.0208 354.93C93.7508 354.78 93.5458 354.583 93.4058 354.34C93.2691 354.097 93.2008 353.83 93.2008 353.54C93.2008 353.257 93.2541 353.012 93.3608 352.805C93.4708 352.595 93.6241 352.422 93.8208 352.285C94.0174 352.145 94.2524 352.035 94.5258 351.955C94.7824 351.885 95.0691 351.825 95.3858 351.775C95.7058 351.722 96.0291 351.673 96.3558 351.63C96.6824 351.587 96.9874 351.545 97.2708 351.505L96.9508 351.69C96.9608 351.21 96.8641 350.855 96.6608 350.625C96.4608 350.395 96.1141 350.28 95.6208 350.28C95.2941 350.28 95.0074 350.355 94.7608 350.505C94.5174 350.652 94.3458 350.892 94.2458 351.225L93.4008 350.97C93.5308 350.497 93.7824 350.125 94.1558 349.855C94.5291 349.585 95.0208 349.45 95.6308 349.45C96.1208 349.45 96.5408 349.538 96.8908 349.715C97.2441 349.888 97.4974 350.152 97.6508 350.505C97.7274 350.672 97.7758 350.853 97.7958 351.05C97.8158 351.243 97.8258 351.447 97.8258 351.66V355H97.0358V353.705L97.2208 353.825C97.0174 354.262 96.7324 354.592 96.3658 354.815C96.0024 355.038 95.5591 355.15 95.0358 355.15ZM95.1708 354.405C95.4908 354.405 95.7674 354.348 96.0008 354.235C96.2374 354.118 96.4274 353.967 96.5708 353.78C96.7141 353.59 96.8074 353.383 96.8508 353.16C96.9008 352.993 96.9274 352.808 96.9308 352.605C96.9374 352.398 96.9408 352.24 96.9408 352.13L97.2508 352.265C96.9608 352.305 96.6758 352.343 96.3958 352.38C96.1158 352.417 95.8508 352.457 95.6008 352.5C95.3508 352.54 95.1258 352.588 94.9258 352.645C94.7791 352.692 94.6408 352.752 94.5108 352.825C94.3841 352.898 94.2808 352.993 94.2008 353.11C94.1241 353.223 94.0858 353.365 94.0858 353.535C94.0858 353.682 94.1224 353.822 94.1958 353.955C94.2724 354.088 94.3891 354.197 94.5458 354.28C94.7058 354.363 94.9141 354.405 95.1708 354.405ZM100.556 355V350.41H98.6758V349.6H103.326V350.41H101.446V355H100.556ZM103.675 355V354.235C103.875 354.272 104.026 354.265 104.13 354.215C104.236 354.162 104.315 354.07 104.365 353.94C104.418 353.807 104.461 353.64 104.495 353.44C104.551 353.123 104.6 352.77 104.64 352.38C104.683 351.99 104.721 351.563 104.755 351.1C104.791 350.633 104.825 350.133 104.855 349.6H108.63V355H107.74V350.445H105.665C105.645 350.752 105.62 351.067 105.59 351.39C105.563 351.713 105.535 352.028 105.505 352.335C105.475 352.638 105.441 352.922 105.405 353.185C105.371 353.445 105.335 353.67 105.295 353.86C105.231 354.187 105.143 354.448 105.03 354.645C104.916 354.838 104.753 354.963 104.54 355.02C104.326 355.08 104.038 355.073 103.675 355ZM112.334 355.15C111.797 355.15 111.334 355.028 110.944 354.785C110.557 354.542 110.259 354.205 110.049 353.775C109.839 353.345 109.734 352.852 109.734 352.295C109.734 351.728 109.841 351.232 110.054 350.805C110.267 350.378 110.569 350.047 110.959 349.81C111.349 349.57 111.807 349.45 112.334 349.45C112.874 349.45 113.339 349.572 113.729 349.815C114.119 350.055 114.417 350.39 114.624 350.82C114.834 351.247 114.939 351.738 114.939 352.295C114.939 352.858 114.834 353.355 114.624 353.785C114.414 354.212 114.114 354.547 113.724 354.79C113.334 355.03 112.871 355.15 112.334 355.15ZM112.334 354.305C112.894 354.305 113.311 354.118 113.584 353.745C113.857 353.372 113.994 352.888 113.994 352.295C113.994 351.685 113.856 351.2 113.579 350.84C113.302 350.477 112.887 350.295 112.334 350.295C111.957 350.295 111.647 350.38 111.404 350.55C111.161 350.72 110.979 350.955 110.859 351.255C110.739 351.555 110.679 351.902 110.679 352.295C110.679 352.902 110.819 353.388 111.099 353.755C111.379 354.122 111.791 354.305 112.334 354.305ZM116.035 355V349.6H116.925V351.875H119.765V349.6H120.655V355H119.765V352.72H116.925V355H116.035ZM124.33 355.15C123.784 355.15 123.319 355.028 122.935 354.785C122.555 354.538 122.265 354.2 122.065 353.77C121.865 353.34 121.762 352.85 121.755 352.3C121.762 351.737 121.867 351.242 122.07 350.815C122.277 350.385 122.572 350.05 122.955 349.81C123.339 349.57 123.8 349.45 124.34 349.45C124.91 349.45 125.4 349.59 125.81 349.87C126.224 350.15 126.5 350.533 126.64 351.02L125.76 351.285C125.647 350.972 125.462 350.728 125.205 350.555C124.952 350.382 124.66 350.295 124.33 350.295C123.96 350.295 123.655 350.382 123.415 350.555C123.175 350.725 122.997 350.962 122.88 351.265C122.764 351.565 122.704 351.91 122.7 352.3C122.707 352.9 122.845 353.385 123.115 353.755C123.389 354.122 123.794 354.305 124.33 354.305C124.684 354.305 124.977 354.225 125.21 354.065C125.444 353.902 125.62 353.667 125.74 353.36L126.64 353.595C126.454 354.098 126.162 354.483 125.765 354.75C125.369 355.017 124.89 355.15 124.33 355.15ZM127.656 355L127.661 349.6H128.561V352.2L130.826 349.6H131.981L129.596 352.3L132.261 355H131.016L128.561 352.4V355H127.656ZM134.294 355.15C133.89 355.15 133.552 355.077 133.279 354.93C133.009 354.78 132.804 354.583 132.664 354.34C132.527 354.097 132.459 353.83 132.459 353.54C132.459 353.257 132.512 353.012 132.619 352.805C132.729 352.595 132.882 352.422 133.079 352.285C133.275 352.145 133.51 352.035 133.784 351.955C134.04 351.885 134.327 351.825 134.644 351.775C134.964 351.722 135.287 351.673 135.614 351.63C135.94 351.587 136.245 351.545 136.529 351.505L136.209 351.69C136.219 351.21 136.122 350.855 135.919 350.625C135.719 350.395 135.372 350.28 134.879 350.28C134.552 350.28 134.265 350.355 134.019 350.505C133.775 350.652 133.604 350.892 133.504 351.225L132.659 350.97C132.789 350.497 133.04 350.125 133.414 349.855C133.787 349.585 134.279 349.45 134.889 349.45C135.379 349.45 135.799 349.538 136.149 349.715C136.502 349.888 136.755 350.152 136.909 350.505C136.985 350.672 137.034 350.853 137.054 351.05C137.074 351.243 137.084 351.447 137.084 351.66V355H136.294V353.705L136.479 353.825C136.275 354.262 135.99 354.592 135.624 354.815C135.26 355.038 134.817 355.15 134.294 355.15ZM134.429 354.405C134.749 354.405 135.025 354.348 135.259 354.235C135.495 354.118 135.685 353.967 135.829 353.78C135.972 353.59 136.065 353.383 136.109 353.16C136.159 352.993 136.185 352.808 136.189 352.605C136.195 352.398 136.199 352.24 136.199 352.13L136.509 352.265C136.219 352.305 135.934 352.343 135.654 352.38C135.374 352.417 135.109 352.457 134.859 352.5C134.609 352.54 134.384 352.588 134.184 352.645C134.037 352.692 133.899 352.752 133.769 352.825C133.642 352.898 133.539 352.993 133.459 353.11C133.382 353.223 133.344 353.365 133.344 353.535C133.344 353.682 133.38 353.822 133.454 353.955C133.53 354.088 133.647 354.197 133.804 354.28C133.964 354.363 134.172 354.405 134.429 354.405ZM141.719 355V353.045H140.554C140.417 353.045 140.265 353.04 140.099 353.03C139.935 353.017 139.782 352.998 139.639 352.975C139.249 352.902 138.919 352.73 138.649 352.46C138.382 352.19 138.249 351.817 138.249 351.34C138.249 350.877 138.374 350.505 138.624 350.225C138.877 349.942 139.189 349.758 139.559 349.675C139.725 349.635 139.894 349.613 140.064 349.61C140.237 349.603 140.384 349.6 140.504 349.6H142.609L142.614 355H141.719ZM138.084 355L139.519 352.8H140.479L139.044 355H138.084ZM140.489 352.31H141.719V350.335H140.489C140.412 350.335 140.31 350.338 140.184 350.345C140.06 350.352 139.942 350.372 139.829 350.405C139.722 350.435 139.617 350.49 139.514 350.57C139.414 350.65 139.33 350.753 139.264 350.88C139.197 351.007 139.164 351.157 139.164 351.33C139.164 351.58 139.234 351.783 139.374 351.94C139.514 352.093 139.684 352.197 139.884 352.25C139.994 352.277 140.102 352.293 140.209 352.3C140.319 352.307 140.412 352.31 140.489 352.31ZM99.2041 369.15C98.6674 369.15 98.2041 369.028 97.8141 368.785C97.4274 368.542 97.1291 368.205 96.9191 367.775C96.7091 367.345 96.6041 366.852 96.6041 366.295C96.6041 365.728 96.7108 365.232 96.9241 364.805C97.1374 364.378 97.4391 364.047 97.8291 363.81C98.2191 363.57 98.6774 363.45 99.2041 363.45C99.7441 363.45 100.209 363.572 100.599 363.815C100.989 364.055 101.287 364.39 101.494 364.82C101.704 365.247 101.809 365.738 101.809 366.295C101.809 366.858 101.704 367.355 101.494 367.785C101.284 368.212 100.984 368.547 100.594 368.79C100.204 369.03 99.7408 369.15 99.2041 369.15ZM99.2041 368.305C99.7641 368.305 100.181 368.118 100.454 367.745C100.727 367.372 100.864 366.888 100.864 366.295C100.864 365.685 100.726 365.2 100.449 364.84C100.172 364.477 99.7574 364.295 99.2041 364.295C98.8274 364.295 98.5174 364.38 98.2741 364.55C98.0308 364.72 97.8491 364.955 97.7291 365.255C97.6091 365.555 97.5491 365.902 97.5491 366.295C97.5491 366.902 97.6891 367.388 97.9691 367.755C98.2491 368.122 98.6608 368.305 99.2041 368.305ZM105.105 369.155C104.595 369.152 104.16 369.042 103.8 368.825C103.44 368.605 103.16 368.283 102.96 367.86C102.76 367.437 102.648 366.918 102.625 366.305C102.612 366.022 102.615 365.71 102.635 365.37C102.658 365.03 102.695 364.703 102.745 364.39C102.798 364.077 102.865 363.818 102.945 363.615C103.035 363.372 103.162 363.147 103.325 362.94C103.492 362.73 103.678 362.557 103.885 362.42C104.095 362.277 104.33 362.165 104.59 362.085C104.85 362.005 105.122 361.943 105.405 361.9C105.692 361.853 105.978 361.813 106.265 361.78C106.552 361.743 106.825 361.7 107.085 361.65L107.175 362.45C106.992 362.49 106.775 362.525 106.525 362.555C106.275 362.582 106.015 362.613 105.745 362.65C105.478 362.687 105.222 362.738 104.975 362.805C104.732 362.868 104.522 362.957 104.345 363.07C104.085 363.227 103.885 363.462 103.745 363.775C103.608 364.085 103.525 364.433 103.495 364.82C103.702 364.5 103.97 364.265 104.3 364.115C104.63 363.965 104.982 363.89 105.355 363.89C105.838 363.89 106.255 364.003 106.605 364.23C106.955 364.453 107.223 364.762 107.41 365.155C107.6 365.548 107.695 365.997 107.695 366.5C107.695 367.033 107.588 367.5 107.375 367.9C107.162 368.3 106.86 368.61 106.47 368.83C106.083 369.05 105.628 369.158 105.105 369.155ZM105.16 368.31C105.683 368.31 106.08 368.148 106.35 367.825C106.62 367.498 106.755 367.065 106.755 366.525C106.755 365.972 106.615 365.537 106.335 365.22C106.055 364.9 105.662 364.74 105.155 364.74C104.642 364.74 104.248 364.9 103.975 365.22C103.705 365.537 103.57 365.972 103.57 366.525C103.57 367.082 103.707 367.518 103.98 367.835C104.253 368.152 104.647 368.31 105.16 368.31ZM108.299 369V368.235C108.499 368.272 108.65 368.265 108.754 368.215C108.86 368.162 108.939 368.07 108.989 367.94C109.042 367.807 109.085 367.64 109.119 367.44C109.175 367.123 109.224 366.77 109.264 366.38C109.307 365.99 109.345 365.563 109.379 365.1C109.415 364.633 109.449 364.133 109.479 363.6H113.254V369H112.364V364.445H110.289C110.269 364.752 110.244 365.067 110.214 365.39C110.187 365.713 110.159 366.028 110.129 366.335C110.099 366.638 110.065 366.922 110.029 367.185C109.995 367.445 109.959 367.67 109.919 367.86C109.855 368.187 109.767 368.448 109.654 368.645C109.54 368.838 109.377 368.963 109.164 369.02C108.95 369.08 108.662 369.073 108.299 369ZM116.193 369.15C115.79 369.15 115.451 369.077 115.178 368.93C114.908 368.78 114.703 368.583 114.563 368.34C114.426 368.097 114.358 367.83 114.358 367.54C114.358 367.257 114.411 367.012 114.518 366.805C114.628 366.595 114.781 366.422 114.978 366.285C115.175 366.145 115.41 366.035 115.683 365.955C115.94 365.885 116.226 365.825 116.543 365.775C116.863 365.722 117.186 365.673 117.513 365.63C117.84 365.587 118.145 365.545 118.428 365.505L118.108 365.69C118.118 365.21 118.021 364.855 117.818 364.625C117.618 364.395 117.271 364.28 116.778 364.28C116.451 364.28 116.165 364.355 115.918 364.505C115.675 364.652 115.503 364.892 115.403 365.225L114.558 364.97C114.688 364.497 114.94 364.125 115.313 363.855C115.686 363.585 116.178 363.45 116.788 363.45C117.278 363.45 117.698 363.538 118.048 363.715C118.401 363.888 118.655 364.152 118.808 364.505C118.885 364.672 118.933 364.853 118.953 365.05C118.973 365.243 118.983 365.447 118.983 365.66V369H118.193V367.705L118.378 367.825C118.175 368.262 117.89 368.592 117.523 368.815C117.16 369.038 116.716 369.15 116.193 369.15ZM116.328 368.405C116.648 368.405 116.925 368.348 117.158 368.235C117.395 368.118 117.585 367.967 117.728 367.78C117.871 367.59 117.965 367.383 118.008 367.16C118.058 366.993 118.085 366.808 118.088 366.605C118.095 366.398 118.098 366.24 118.098 366.13L118.408 366.265C118.118 366.305 117.833 366.343 117.553 366.38C117.273 366.417 117.008 366.457 116.758 366.5C116.508 366.54 116.283 366.588 116.083 366.645C115.936 366.692 115.798 366.752 115.668 366.825C115.541 366.898 115.438 366.993 115.358 367.11C115.281 367.223 115.243 367.365 115.243 367.535C115.243 367.682 115.28 367.822 115.353 367.955C115.43 368.088 115.546 368.197 115.703 368.28C115.863 368.363 116.071 368.405 116.328 368.405ZM122.558 369.15C122.011 369.15 121.546 369.028 121.163 368.785C120.783 368.538 120.493 368.2 120.293 367.77C120.093 367.34 119.99 366.85 119.983 366.3C119.99 365.737 120.095 365.242 120.298 364.815C120.505 364.385 120.8 364.05 121.183 363.81C121.566 363.57 122.028 363.45 122.568 363.45C123.138 363.45 123.628 363.59 124.038 363.87C124.451 364.15 124.728 364.533 124.868 365.02L123.988 365.285C123.875 364.972 123.69 364.728 123.433 364.555C123.18 364.382 122.888 364.295 122.558 364.295C122.188 364.295 121.883 364.382 121.643 364.555C121.403 364.725 121.225 364.962 121.108 365.265C120.991 365.565 120.931 365.91 120.928 366.3C120.935 366.9 121.073 367.385 121.343 367.755C121.616 368.122 122.021 368.305 122.558 368.305C122.911 368.305 123.205 368.225 123.438 368.065C123.671 367.902 123.848 367.667 123.968 367.36L124.868 367.595C124.681 368.098 124.39 368.483 123.993 368.75C123.596 369.017 123.118 369.15 122.558 369.15ZM127.221 369V364.41H125.341V363.6H129.991V364.41H128.111V369H127.221ZM130.937 369L130.932 363.6H131.827V365.555H132.992C133.149 365.555 133.309 365.558 133.472 365.565C133.636 365.572 133.777 365.587 133.897 365.61C134.177 365.663 134.422 365.757 134.632 365.89C134.842 366.023 135.006 366.205 135.122 366.435C135.239 366.662 135.297 366.943 135.297 367.28C135.297 367.747 135.176 368.117 134.932 368.39C134.692 368.66 134.377 368.84 133.987 368.93C133.854 368.96 133.701 368.98 133.527 368.99C133.357 368.997 133.196 369 133.042 369H130.937ZM131.827 368.265H133.057C133.157 368.265 133.269 368.262 133.392 368.255C133.516 368.248 133.626 368.232 133.722 368.205C133.892 368.155 134.044 368.057 134.177 367.91C134.314 367.763 134.382 367.553 134.382 367.28C134.382 367.003 134.316 366.79 134.182 366.64C134.052 366.49 133.881 366.392 133.667 366.345C133.571 366.322 133.469 366.307 133.362 366.3C133.256 366.293 133.154 366.29 133.057 366.29H131.827V368.265Z" fill="#D1D5DB"/>
<path d="M176.59 93.0001L180.006 87.9041L176.688 82.9201H178.753L181.049 86.4691L183.324 82.9201H185.403L182.085 87.9041L185.487 93.0001H183.422L181.049 89.3391L178.669 93.0001H176.59ZM187.598 96.3601L189.054 92.3631L189.082 93.5391L185.785 85.4401H187.542L189.88 91.4321H189.432L191.707 85.4401H193.394L189.18 96.3601H187.598ZM193.605 94.6801V91.6771C194.015 91.6771 194.307 91.5371 194.48 91.2571C194.652 90.9771 194.79 90.4918 194.893 89.8011C194.958 89.3905 195.012 88.9565 195.054 88.4991C195.096 88.0418 195.131 87.5588 195.159 87.0501C195.191 86.5415 195.219 86.0048 195.243 85.4401H200.871V91.6771H201.634V94.6801H200.038V93.0001H195.194V94.6801H193.605ZM195.866 91.6771H199.191V86.7631H196.72C196.706 87.0431 196.689 87.3301 196.671 87.6241C196.652 87.9135 196.631 88.2028 196.608 88.4921C196.584 88.7815 196.559 89.0591 196.531 89.3251C196.507 89.5865 196.479 89.8291 196.447 90.0531C196.395 90.4451 196.332 90.7671 196.258 91.0191C196.183 91.2711 196.052 91.4905 195.866 91.6771ZM202.198 93.0001L204.97 89.2201L202.366 85.4401H204.214L206.671 89.1011V85.4401H208.169V89.1011L210.626 85.4401H212.467L209.863 89.2201L212.635 93.0001H210.689L208.169 89.3391V93.0001H206.671V89.3391L204.144 93.0001H202.198ZM215.597 93.2101C215.051 93.2101 214.589 93.1075 214.211 92.9021C213.833 92.6921 213.546 92.4145 213.35 92.0691C213.159 91.7238 213.063 91.3435 213.063 90.9281C213.063 90.5641 213.124 90.2375 213.245 89.9481C213.366 89.6541 213.553 89.4021 213.805 89.1921C214.057 88.9775 214.384 88.8025 214.785 88.6671C215.088 88.5691 215.443 88.4805 215.849 88.4011C216.26 88.3218 216.703 88.2495 217.179 88.1841C217.66 88.1141 218.161 88.0395 218.684 87.9601L218.082 88.3031C218.087 87.7805 217.97 87.3955 217.732 87.1481C217.494 86.9008 217.093 86.7771 216.528 86.7771C216.187 86.7771 215.858 86.8565 215.541 87.0151C215.224 87.1738 215.002 87.4468 214.876 87.8341L213.336 87.3511C213.523 86.7118 213.877 86.1985 214.4 85.8111C214.927 85.4238 215.637 85.2301 216.528 85.2301C217.2 85.2301 217.79 85.3398 218.299 85.5591C218.812 85.7785 219.193 86.1378 219.44 86.6371C219.575 86.9031 219.657 87.1761 219.685 87.4561C219.713 87.7315 219.727 88.0325 219.727 88.3591V93.0001H218.25V91.3621L218.495 91.6281C218.154 92.1741 217.755 92.5755 217.298 92.8321C216.845 93.0841 216.278 93.2101 215.597 93.2101ZM215.933 91.8661C216.316 91.8661 216.642 91.7985 216.913 91.6631C217.184 91.5278 217.398 91.3621 217.557 91.1661C217.72 90.9701 217.83 90.7858 217.886 90.6131C217.975 90.3985 218.024 90.1535 218.033 89.8781C218.047 89.5981 218.054 89.3718 218.054 89.1991L218.572 89.3531C218.063 89.4325 217.627 89.5025 217.263 89.5631C216.899 89.6238 216.586 89.6821 216.325 89.7381C216.064 89.7895 215.833 89.8478 215.632 89.9131C215.436 89.9831 215.27 90.0648 215.135 90.1581C215 90.2515 214.895 90.3588 214.82 90.4801C214.75 90.6015 214.715 90.7438 214.715 90.9071C214.715 91.0938 214.762 91.2595 214.855 91.4041C214.948 91.5441 215.084 91.6561 215.261 91.7401C215.443 91.8241 215.667 91.8661 215.933 91.8661ZM221.535 93.0001V85.4401H223.222V88.4221H226.617V85.4401H228.304V93.0001H226.617V90.0041H223.222V93.0001H221.535ZM229.698 94.6801V91.6771C230.109 91.6771 230.401 91.5371 230.573 91.2571C230.746 90.9771 230.884 90.4918 230.986 89.8011C231.052 89.3905 231.105 88.9565 231.147 88.4991C231.189 88.0418 231.224 87.5588 231.252 87.0501C231.285 86.5415 231.313 86.0048 231.336 85.4401H236.964V91.6771H237.727V94.6801H236.131V93.0001H231.287V94.6801H229.698ZM231.959 91.6771H235.284V86.7631H232.813C232.799 87.0431 232.783 87.3301 232.764 87.6241C232.746 87.9135 232.725 88.2028 232.701 88.4921C232.678 88.7815 232.652 89.0591 232.624 89.3251C232.601 89.5865 232.573 89.8291 232.54 90.0531C232.489 90.4451 232.426 90.7671 232.351 91.0191C232.277 91.2711 232.146 91.4905 231.959 91.6771Z" fill="#1F2937"/>
<path d="M63.9502 223.827L81.4502 220.827L86.9502 211.327H122.45L138.45 203.327H161.95L189.95 194.827L204.95 198.327L212.95 190.827L230.45 200.327L248.45 190.827L261.45 173.327" stroke="white" stroke-width="4"/>
</svg>
