<svg width="60" height="60" viewBox="0 0 60 60" fill="none" xmlns="http://www.w3.org/2000/svg">
<path d="M52.0749 20.025L35.6999 6.92505C32.4999 4.37505 27.4999 4.35005 24.3249 6.90005L7.94991 20.025C5.59991 21.9 4.17491 25.65 4.67491 28.6L7.82491 47.45C8.54991 51.675 12.4749 55 16.7499 55H43.2499C47.4749 55 51.4749 51.6 52.1999 47.425L55.3499 28.575C55.7999 25.65 54.3749 21.9 52.0749 20.025ZM31.8749 45C31.8749 46.025 31.0249 46.875 29.9999 46.875C28.9749 46.875 28.1249 46.025 28.1249 45V37.5C28.1249 36.475 28.9749 35.625 29.9999 35.625C31.0249 35.625 31.8749 36.475 31.8749 37.5V45Z" fill="#FFA900"/>
</svg>
