<svg width="88" height="40" viewBox="0 0 88 40" fill="none" xmlns="http://www.w3.org/2000/svg">
<path d="M20 4C15.7575 4 11.685 5.68675 8.6875 8.68625C5.68693 11.687 4.00086 15.7565 4 20C4 24.2417 5.6875 28.3142 8.6875 31.3137C11.685 34.3132 15.7575 36 20 36C24.2425 36 28.315 34.3132 31.3125 31.3137C34.3125 28.3142 36 24.2417 36 20C36 15.7583 34.3125 11.6858 31.3125 8.68625C28.315 5.68675 24.2425 4 20 4Z" fill="url(#paint0_linear_1835_3337)"/>
<path d="M11.2421 19.8311C15.9071 17.7991 19.0171 16.4594 20.5721 15.8121C25.0171 13.9638 25.9396 13.6428 26.5421 13.6319C26.6746 13.6298 26.9696 13.6626 27.1621 13.8182C27.3221 13.9494 27.3671 14.1269 27.3896 14.2516C27.4096 14.3761 27.4371 14.6598 27.4146 14.8813C27.1746 17.4113 26.1321 23.5508 25.6021 26.3846C25.3796 27.5836 24.9371 27.9856 24.5096 28.0248C23.5796 28.1103 22.8746 27.4108 21.9746 26.8211C20.5671 25.8978 19.7721 25.3233 18.4046 24.4226C16.8246 23.3816 17.8496 22.8093 18.7496 21.8743C18.9846 21.6296 23.0796 17.9058 23.1571 17.5681C23.1671 17.5258 23.1771 17.3683 23.0821 17.2853C22.9896 17.2021 22.8521 17.2306 22.7521 17.2531C22.6096 17.2851 20.3621 18.7721 16.0021 21.7138C15.3646 22.1523 14.7871 22.3661 14.2671 22.3548C13.6971 22.3426 12.5971 22.0318 11.7796 21.7663C10.7796 21.4406 9.98213 21.2683 10.0521 20.7151C10.0871 20.4271 10.4846 20.1323 11.2421 19.8311Z" fill="white"/>
<path d="M52.1309 19.5138C52.1302 22.2478 52.8501 24.9174 54.2191 27.2704L52 35.3098L60.2916 33.1526C62.585 34.3914 65.1545 35.0405 67.7657 35.0407H67.7726C76.3925 35.0407 83.4094 28.0807 83.4131 19.5261C83.4147 15.3807 81.7892 11.4827 78.836 8.55007C75.8832 5.61767 71.9561 4.00189 67.7719 4C59.151 4 52.1346 10.9596 52.1311 19.5138" fill="url(#paint1_linear_1835_3337)"/>
<path d="M63.7252 12.7903C63.4219 12.1215 63.1027 12.108 62.8143 12.0963C62.5781 12.0862 62.3082 12.0869 62.0384 12.0869C61.7685 12.0869 61.3298 12.1877 60.959 12.5894C60.5879 12.9915 59.542 13.9632 59.542 15.9394C59.542 17.9157 60.9927 19.8257 61.1949 20.094C61.3974 20.3617 63.9955 24.547 68.1103 26.1571C71.5301 27.4952 72.226 27.2291 72.9682 27.162C73.7106 27.0951 75.3635 26.1906 75.7007 25.2526C76.0382 24.3147 76.0382 23.5108 75.937 23.3428C75.8358 23.1754 75.5659 23.0749 75.161 22.8741C74.7562 22.6733 72.7658 21.7014 72.3947 21.5673C72.0236 21.4334 71.7537 21.3665 71.4837 21.7688C71.2137 22.1703 70.4385 23.0749 70.2022 23.3428C69.9662 23.6113 69.7299 23.6447 69.3251 23.4438C68.92 23.2423 67.6163 22.8186 66.0695 21.4503C64.866 20.3855 64.0535 19.0707 63.8173 18.6685C63.5812 18.2669 63.792 18.0492 63.995 17.8491C64.1769 17.6691 64.4 17.38 64.6026 17.1455C64.8045 16.9109 64.8718 16.7436 65.0068 16.4757C65.142 16.2075 65.0743 15.973 64.9733 15.772C64.8718 15.5711 64.0852 13.5845 63.7252 12.7903Z" fill="white"/>
<defs>
<linearGradient id="paint0_linear_1835_3337" x1="1604" y1="4" x2="1604" y2="3204" gradientUnits="userSpaceOnUse">
<stop stop-color="#2AABEE"/>
<stop offset="1" stop-color="#229ED9"/>
</linearGradient>
<linearGradient id="paint1_linear_1835_3337" x1="1622.65" y1="3134.98" x2="1622.65" y2="4" gradientUnits="userSpaceOnUse">
<stop stop-color="#1FAF38"/>
<stop offset="1" stop-color="#60D669"/>
</linearGradient>
</defs>
</svg>
