<svg width="32" height="32" viewBox="0 0 32 32" fill="none" xmlns="http://www.w3.org/2000/svg">
<path fill-rule="evenodd" clip-rule="evenodd" d="M11.2876 6.98149C10.9902 7.3832 11.0243 7.9562 11.4001 8.31984C11.8001 8.71984 12.4534 8.71984 12.8534 8.31984L14.9734 6.1865V11.7065H17.0268V6.1865L19.1468 8.31984L19.2618 8.41901C19.6635 8.71653 20.2365 8.68347 20.6001 8.31984C20.8001 8.11984 20.9068 7.85317 20.9068 7.5865C20.9068 7.33317 20.8001 7.0665 20.6001 6.8665L16.7201 2.97317L16.5991 2.86448C16.4268 2.73477 16.2134 2.6665 16.0001 2.6665C15.7201 2.6665 15.4668 2.77317 15.2668 2.97317L11.3868 6.8665L11.2876 6.98149ZM8.30805 11.7133C5.17038 11.8615 2.6665 14.501 2.6665 17.7165V24.3366L2.67295 24.62C2.81863 27.8131 5.41355 30.3734 8.59984 30.3734H23.4132L23.6916 30.3669C26.8293 30.2187 29.3332 27.5789 29.3332 24.3502V17.7436L29.3267 17.4592C29.1803 14.2543 26.5732 11.7068 23.3998 11.7068H17.0265V19.8463L17.017 19.9894C16.9481 20.5033 16.5132 20.8909 15.9998 20.8909C15.4265 20.8909 14.9732 20.4296 14.9732 19.8463V11.7068H8.5865L8.30805 11.7133Z" fill="#FFA900"/>
</svg>
